<svg xmlns="http://www.w3.org/2000/svg" width="363.64" height="121.41" viewBox="0 0 363.64 121.41">
  <path d="M333.25,48.33a5.48,5.48,0,1,1,0,10.96H274.79a5.559,5.559,0,0,1-3.88-1.6,5.48,5.48,0,0,1,3.88-9.36Z" fill="#1e0068"/>
  <path d="M282.01,96.79a24.625,24.625,0,0,1-24.63,24.62H0V0H355.06a18.175,18.175,0,0,1-9.35,33.61v.02H232.76a19.27,19.27,0,1,0,0,38.54h24.62A24.625,24.625,0,0,1,282.01,96.79Z" fill="#1e0068"/>
  <path d="M362.49,85.79a6.406,6.406,0,0,1-6.39,6.38H337.82a6.385,6.385,0,1,1,0-12.77H356.1A6.415,6.415,0,0,1,362.49,85.79Z" fill="#1e0068"/>
  <path d="M362.49,85.79a6.406,6.406,0,0,1-6.39,6.38H337.82a6.385,6.385,0,1,1,0-12.77H356.1A6.415,6.415,0,0,1,362.49,85.79Z" fill="#4f00ec"/>
  <path d="M338.74,53.82a5.5,5.5,0,0,1-5.49,5.47H274.79a5.559,5.559,0,0,1-3.88-1.6,5.48,5.48,0,0,1,3.88-9.36h58.46a5.5,5.5,0,0,1,5.49,5.49Z" fill="#4f00ec"/>
  <path d="M363.64,15.43a18.194,18.194,0,0,1-17.93,18.18v.02H232.76a19.27,19.27,0,1,0,0,38.54h24.62a24.62,24.62,0,1,1,0,49.24H0V0H355.06A18.148,18.148,0,0,1,363.64,15.43Z" fill="#4f00ec"/>
  <g>
    <path d="M28.87,41.838c-.144,0-.216.036-.216.252V52.169c0,.468-.324.468-.576.468H23.4c-.252,0-.611-.036-.611-.468.252-6.767.252-10.475.252-13.211,0-3.239,0-6.407-.252-9.646-.037-.468,2.519-1.872,5.507-1.872,6.3,0,9.575,2.231,9.575,6.515C37.869,38.491,34.161,41.838,28.87,41.838Zm3.6-8.171c0-1.548-2.015-1.692-2.844-1.692-.863,0-.971.144-.971.684v3.924c0,.18.036.324.36.324C30.166,36.907,32.469,35.323,32.469,33.667Z" fill="#fff"/>
    <path d="M56.121,39.534c0,10.115-2.448,13.57-8.531,13.57-6.551,0-9.143-4.031-9.143-13.6,0-8.819,2.663-12.491,8.459-12.491C53.1,27.008,56.121,31.255,56.121,39.534Zm-8.675,7.559c2.231,0,2.663-1.044,2.663-8.063,0-4.571-.432-6.443-2.915-6.443-2.52,0-2.736,1.872-2.736,6.371C44.458,45.8,44.962,47.093,47.446,47.093Z" fill="#fff"/>
    <path d="M58.319,41.478V28.484c0-1.044,1.656-1.044,2.663-1.044,1.332,0,3.06.252,3.06.936V41.694c0,3.78,1.368,4.464,2.88,4.464s3.1-.684,3.1-4.464V28.448c0-.756.827-1.008,2.7-1.008,1.188,0,3.024,0,3.024.648V41.766c0,9.467-3.564,10.871-8.711,10.871S58.319,50.513,58.319,41.478Z" fill="#fff"/>
    <path d="M88.09,43.674c.143,0,.252-.144.324-.432l3.347-15.3c.072-.4.468-.5.936-.5H99.14c.54,0,.612.18.5.5L92.373,52.133a.843.843,0,0,1-.864.5H85.462c-.36,0-.792-.108-.9-.468L77.219,28.016c-.108-.324.036-.576.648-.576h6.587a.636.636,0,0,1,.72.576L87.8,43.242C87.874,43.53,87.981,43.674,88.09,43.674Z" fill="#fff"/>
    <path d="M117.032,39.534c0,10.115-2.448,13.57-8.531,13.57-6.551,0-9.143-4.031-9.143-13.6,0-8.819,2.664-12.491,8.459-12.491C114.009,27.008,117.032,31.255,117.032,39.534Zm-8.675,7.559c2.232,0,2.664-1.044,2.664-8.063,0-4.571-.432-6.443-2.916-6.443-2.519,0-2.735,1.872-2.735,6.371C105.37,45.8,105.874,47.093,108.357,47.093Z" fill="#fff"/>
    <path d="M120.922,52.637c-.648,0-.792,0-.792-.36V28.988c0-.828,3.96-1.548,7.163-1.548.468,0,.612,0,.612.756V52.277c0,.36-.216.36-.971.36Z" fill="#fff"/>
    <path d="M146.552,52.169c0,.468-.5.468-.756.468h-5.327a.637.637,0,0,1-.576-.324l-2.16-4.68c-.287-.612-.5-.936-.648-.936-.179,0-.252.324-.252.936v4.536c0,.468-.467.468-.719.468h-4.536c-.252,0-.612,0-.612-.468,0-1.692.288-5.795.288-10.943,0-5.111-.215-12.2-.215-12.455,0-.9,3.095-1.331,5.831-1.331,4.535,0,7.775,2.556,7.775,6.659a5.7,5.7,0,0,1-4.968,5.939c-.323,0-.288.108.036.576C140.505,41.8,146.552,51.125,146.552,52.169ZM136.618,35.4c0,.216.108.288.432.288a3.062,3.062,0,0,0,2.879-2.844c0-1.08-.9-1.512-2.519-1.512-.684,0-.792.072-.792.648Z" fill="#fff"/>
    <path d="M169.521,27.692V52.205c0,.432-.289.432-.541.432h-5.471c-.252,0-.576,0-.576-.468V35.5q0-.27-.216-.216l-3.923.972c-.288.072-.54-.072-.54-.288v-4.9c0-.143.036-.791,1.224-1.116l8.423-2.411a5.407,5.407,0,0,1,1.26-.108C169.413,27.44,169.521,27.512,169.521,27.692Z" fill="#fff"/>
  </g>
  <g>
    <path d="M29.606,67.765V78.313c0,.256-.064.3-.256.3H27.685c-.192,0-.24-.016-.432-.3-.064-.1-2.8-3.905-2.881-3.905-.064,0-.064,2.864-.064,3.889,0,.272-.08.32-.24.32H22.147c-.176,0-.256-.08-.256-.208v-10.2c0-.224,1.2-.8,1.616-.8a.3.3,0,0,1,.257.112c.048.1,3.121,5.49,3.217,5.49.08,0,.208-3.618.208-5.25,0-.272.112-.352.32-.352h1.809C29.558,67.413,29.606,67.525,29.606,67.765Z" fill="#fff"/>
    <path d="M38.422,72.791c0,4.5-1.088,6.034-3.793,6.034-2.913,0-4.066-1.792-4.066-6.05,0-3.922,1.185-5.554,3.762-5.554C37.078,67.221,38.422,69.109,38.422,72.791Zm-3.857,3.361c.992,0,1.184-.464,1.184-3.585,0-2.033-.192-2.865-1.3-2.865-1.121,0-1.217.832-1.217,2.833C33.236,75.576,33.46,76.152,34.565,76.152Z" fill="#fff"/>
    <path d="M49.207,67.733V78.281a.3.3,0,0,1-.336.336H47.126c-.288,0-.416-.08-.416-.288a14.921,14.921,0,0,0-.512-3.89c-.176,0-1.136,2.689-1.344,2.689h-.929c-.208,0-1.2-2.689-1.361-2.689a14.921,14.921,0,0,0-.512,3.89c0,.208-.016.288-.208.288h-2c-.192,0-.288-.1-.288-.336v-10.1c0-.352,1.761-.768,2.161-.768.16,0,.224,0,.336.272a55.2,55.2,0,0,0,2.337,5.042,53.879,53.879,0,0,0,2.369-5.09.315.315,0,0,1,.352-.224h1.649C48.935,67.413,49.207,67.413,49.207,67.733Z" fill="#fff"/>
    <path d="M59.975,67.733V78.281a.3.3,0,0,1-.336.336H57.894c-.288,0-.416-.08-.416-.288a14.966,14.966,0,0,0-.512-3.89c-.176,0-1.137,2.689-1.345,2.689h-.928c-.209,0-1.2-2.689-1.361-2.689a14.921,14.921,0,0,0-.512,3.89c0,.208-.016.288-.208.288h-2c-.192,0-.288-.1-.288-.336v-10.1c0-.352,1.76-.768,2.161-.768.16,0,.224,0,.336.272a55.2,55.2,0,0,0,2.337,5.042,54.13,54.13,0,0,0,2.369-5.09.314.314,0,0,1,.352-.224h1.649C59.7,67.413,59.975,67.413,59.975,67.733Z" fill="#fff"/>
    <path d="M66.084,76.008c.673,0,1.473,0,1.441.449l-.112,1.392c-.048.592-.16.768-.464.768H61.314c-.224,0-.224-.24-.224-.416V68.117c0-.368,1.649-.7,2.306-.7a27.678,27.678,0,0,1,3.985.256c.1.016.368.064.368.7v1.6a.2.2,0,0,1-.208.208H64.02c-.1,0-.112.128-.112.224v1.248h1.12a.34.34,0,0,1,.384.321v1.488c0,.16-.064.24-.176.24H63.859c-.064,0-.079.064-.079.128v1.953c0,.16.079.224.256.224Z" fill="#fff"/>
    <path d="M75.8,78.409c0,.208-.224.208-.336.208H73.092a.283.283,0,0,1-.256-.144l-.961-2.081c-.127-.272-.224-.416-.288-.416-.08,0-.111.144-.111.416v2.017c0,.208-.208.208-.321.208H69.139c-.113,0-.273,0-.273-.208,0-.752.129-2.577.129-4.866,0-2.273-.1-5.426-.1-5.538,0-.4,1.377-.592,2.593-.592,2.017,0,3.458,1.136,3.458,2.961a2.537,2.537,0,0,1-2.209,2.641c-.144,0-.128.048.016.256C73.108,73.8,75.8,77.945,75.8,78.409ZM71.379,70.95c0,.1.048.128.192.128a1.362,1.362,0,0,0,1.281-1.265c0-.48-.4-.671-1.121-.671-.3,0-.352.031-.352.288Z" fill="#fff"/>
    <path d="M21.891,84.1c0-.288,1.521-.688,2.913-.688.112,0,.24,0,.24.128,0,.256-.48,5.378-.48,6.5,0,.5-.1,1.12.288,1.12.592,0,3.186-.4,3.569-.4.177,0,.241.064.241.272l-.128,3.377c0,.208-.224.208-.449.208H22.147c-.112,0-.256,0-.256-.208Z" fill="#fff"/>
    <path d="M34.613,92.008c.672,0,1.472,0,1.44.449l-.112,1.392c-.047.592-.16.768-.464.768H29.843c-.224,0-.224-.24-.224-.416V84.117c0-.368,1.649-.7,2.3-.7a27.664,27.664,0,0,1,3.985.256c.1.016.368.064.368.7v1.6a.2.2,0,0,1-.208.208H32.548c-.1,0-.112.128-.112.224v1.248h1.121a.34.34,0,0,1,.383.321v1.488c0,.16-.064.24-.175.24H32.388c-.064,0-.08.064-.08.128v1.953c0,.16.08.224.256.224Z" fill="#fff"/>
    <path d="M44.275,89.815c-.064,0-.1.016-.1.112v4.482c0,.208-.144.208-.256.208H41.842c-.112,0-.272-.016-.272-.208.113-3.009.113-4.658.113-5.874,0-1.441,0-2.849-.113-4.29a3.261,3.261,0,0,1,2.45-.832c2.8,0,4.257.992,4.257,2.9C48.277,88.327,46.628,89.815,44.275,89.815Zm1.6-3.633c0-.688-.9-.752-1.264-.752-.384,0-.433.064-.433.3v1.746c0,.079.016.144.16.144C44.852,87.623,45.876,86.918,45.876,86.182Z" fill="#fff"/>
    <path d="M56.165,94.409c0,.208-.224.208-.336.208H53.46a.283.283,0,0,1-.256-.144l-.961-2.081c-.128-.272-.224-.416-.288-.416-.08,0-.112.144-.112.416v2.017c0,.208-.208.208-.32.208H49.506c-.112,0-.272,0-.272-.208,0-.752.128-2.577.128-4.866,0-2.273-.1-5.426-.1-5.538,0-.4,1.377-.592,2.593-.592,2.017,0,3.457,1.136,3.457,2.961a2.536,2.536,0,0,1-2.209,2.641c-.144,0-.128.048.017.256C53.476,89.8,56.165,93.945,56.165,94.409ZM51.747,86.95c0,.1.048.128.192.128a1.363,1.363,0,0,0,1.281-1.265c0-.48-.4-.671-1.121-.671-.3,0-.352.031-.352.288Z" fill="#fff"/>
    <path d="M61.956,92.008c.672,0,1.472,0,1.44.449l-.112,1.392c-.048.592-.16.768-.464.768H57.186c-.225,0-.225-.24-.225-.416V84.117c0-.368,1.649-.7,2.306-.7a27.678,27.678,0,0,1,3.985.256c.1.016.368.064.368.7v1.6a.2.2,0,0,1-.208.208H59.891c-.1,0-.112.128-.112.224v1.248H60.9a.34.34,0,0,1,.384.321v1.488c0,.16-.064.24-.176.24H59.73c-.063,0-.079.064-.079.128v1.953c0,.16.079.224.256.224Z" fill="#fff"/>
    <path d="M74.389,83.733V94.281a.3.3,0,0,1-.336.336H72.309c-.288,0-.416-.08-.416-.288a14.908,14.908,0,0,0-.513-3.89c-.176,0-1.136,2.689-1.344,2.689h-.929c-.208,0-1.2-2.689-1.36-2.689a14.863,14.863,0,0,0-.513,3.89c0,.208-.016.288-.208.288h-2c-.192,0-.288-.1-.288-.336v-10.1c0-.352,1.761-.768,2.161-.768.161,0,.225,0,.336.272a55.474,55.474,0,0,0,2.337,5.042,53.879,53.879,0,0,0,2.369-5.09.315.315,0,0,1,.352-.224h1.649C74.117,83.413,74.389,83.413,74.389,83.733Z" fill="#fff"/>
    <path d="M76.1,94.617c-.288,0-.352,0-.352-.16V84.1c0-.368,1.76-.688,3.185-.688.208,0,.272,0,.272.336V94.457c0,.16-.1.16-.432.16Z" fill="#fff"/>
    <path d="M85.555,92.008c.673,0,1.473,0,1.441.449l-.112,1.392c-.048.592-.16.768-.465.768H80.785c-.224,0-.224-.24-.224-.416V84.117c0-.368,1.649-.7,2.3-.7a27.683,27.683,0,0,1,3.986.256c.1.016.368.064.368.7v1.6a.2.2,0,0,1-.208.208H83.49c-.095,0-.112.128-.112.224v1.248H84.5a.34.34,0,0,1,.384.321v1.488c0,.16-.064.24-.176.24H83.33c-.064,0-.08.064-.08.128v1.953c0,.16.08.224.256.224Z" fill="#fff"/>
    <path d="M95.268,94.409c0,.208-.224.208-.336.208H92.563a.283.283,0,0,1-.256-.144l-.961-2.081c-.128-.272-.224-.416-.288-.416-.08,0-.112.144-.112.416v2.017c0,.208-.208.208-.32.208H88.609c-.112,0-.272,0-.272-.208,0-.752.128-2.577.128-4.866,0-2.273-.1-5.426-.1-5.538,0-.4,1.377-.592,2.593-.592,2.017,0,3.457,1.136,3.457,2.961a2.536,2.536,0,0,1-2.209,2.641c-.144,0-.127.048.017.256C92.579,89.8,95.268,93.945,95.268,94.409ZM90.85,86.95c0,.1.048.128.192.128a1.363,1.363,0,0,0,1.281-1.265c0-.48-.4-.671-1.121-.671-.3,0-.352.031-.352.288Z" fill="#fff"/>
    <path d="M109.877,83.733V94.281a.3.3,0,0,1-.336.336H107.8c-.288,0-.416-.08-.416-.288a14.921,14.921,0,0,0-.512-3.89c-.176,0-1.137,2.689-1.345,2.689H104.6c-.208,0-1.2-2.689-1.361-2.689a14.921,14.921,0,0,0-.512,3.89c0,.208-.016.288-.208.288h-2c-.192,0-.288-.1-.288-.336v-10.1c0-.352,1.761-.768,2.161-.768.16,0,.224,0,.336.272a55.2,55.2,0,0,0,2.337,5.042,54.13,54.13,0,0,0,2.369-5.09.314.314,0,0,1,.352-.224h1.649C109.605,83.413,109.877,83.413,109.877,83.733Z" fill="#fff"/>
    <path d="M111.585,94.617c-.288,0-.352,0-.352-.16V84.1c0-.368,1.761-.688,3.185-.688.208,0,.272,0,.272.336V94.457c0,.16-.1.16-.432.16Z" fill="#fff"/>
    <path d="M123.6,83.765V94.313c0,.256-.064.3-.256.3h-1.665c-.192,0-.24-.016-.433-.3-.063-.1-2.8-3.905-2.88-3.905-.064,0-.064,2.864-.064,3.889,0,.272-.08.32-.241.32h-1.92c-.177,0-.256-.08-.256-.208v-10.2c0-.224,1.2-.8,1.616-.8a.3.3,0,0,1,.256.112c.048.1,3.121,5.49,3.218,5.49.08,0,.208-3.618.208-5.25,0-.272.112-.352.32-.352h1.808C123.556,83.413,123.6,83.525,123.6,83.765Z" fill="#fff"/>
    <path d="M125.152,94.617c-.288,0-.352,0-.352-.16V84.1c0-.368,1.761-.688,3.186-.688.208,0,.272,0,.272.336V94.457c0,.16-.1.16-.432.16Z" fill="#fff"/>
    <path d="M129.3,93.705V92.344c0-.56.112-.656.352-.7.88-.16,3.857.336,3.857-1.088,0-1.633-3.889-.721-3.889-3.858,0-2.465,2.417-3.281,4.626-3.281a8.342,8.342,0,0,1,1.44.112c.545.1.672.176.672.7v.977c0,.432,0,.64-.624.527a7.151,7.151,0,0,0-1.312-.128c-1.153,0-1.665.4-1.665,1.073,0,1.793,3.57.832,3.57,4.578,0,2.753-1.921,3.345-3.938,3.345a20.211,20.211,0,0,1-2.529-.208C129.408,94.329,129.3,94.233,129.3,93.705Z" fill="#fff"/>
    <path d="M146.58,83.413c.32,0,.544.288.544.688v1.488c0,.673-.112.817-.672.817H143.73c-.191,0-.208.064-.208.208,0,2.753.113,5.17.241,7.779.016.224-.128.224-.321.224h-2.609c-.191,0-.335-.016-.32-.224.144-2.609.24-5.026.24-7.779,0-.128-.016-.208-.24-.208h-2.785c-.56,0-.576-.256-.576-.864V84.069c0-.432.176-.656.512-.656Z" fill="#fff"/>
    <path d="M155.171,94.409c0,.208-.224.208-.337.208h-2.368a.286.286,0,0,1-.257-.144l-.96-2.081c-.128-.272-.224-.416-.288-.416-.08,0-.112.144-.112.416v2.017c0,.208-.208.208-.32.208h-2.017c-.112,0-.272,0-.272-.208,0-.752.128-2.577.128-4.866,0-2.273-.1-5.426-.1-5.538,0-.4,1.376-.592,2.593-.592,2.017,0,3.457,1.136,3.457,2.961a2.536,2.536,0,0,1-2.209,2.641c-.144,0-.128.048.016.256C152.481,89.8,155.171,93.945,155.171,94.409Zm-4.418-7.459c0,.1.048.128.192.128a1.363,1.363,0,0,0,1.281-1.265c0-.48-.4-.671-1.121-.671-.3,0-.352.031-.352.288Z" fill="#fff"/>
    <path d="M160.961,92.008c.673,0,1.473,0,1.441.449l-.112,1.392c-.048.592-.16.768-.464.768h-5.635c-.224,0-.224-.24-.224-.416V84.117c0-.368,1.649-.7,2.3-.7a27.683,27.683,0,0,1,3.986.256c.1.016.368.064.368.7v1.6a.2.2,0,0,1-.208.208H158.9c-.095,0-.111.128-.111.224v1.248h1.12a.34.34,0,0,1,.384.321v1.488c0,.16-.064.24-.176.24h-1.377c-.064,0-.079.064-.079.128v1.953c0,.16.079.224.256.224Z" fill="#fff"/>
  </g>
</svg>
